<svg height="512pt" viewBox="0 0 512 512" width="512pt" xmlns="http://www.w3.org/2000/svg">
  <path
      d="m69.886719 378.648438c-3.285157-3.285157-6.246094-6.769532-8.902344-10.410157l-60.984375 60.984375 82.777344 82.777344 60.796875-60.796875c-3.105469-2.375-6.085938-4.953125-8.898438-7.765625zm0 0"/>
  <path
      d="m159.3125 208.109375-67.90625 67.902344c-22.363281 22.363281-22.363281 58.753906 0 81.117187l64.789062 64.789063c10.835938 10.835937 25.238282 16.800781 40.558594 16.800781 15.320313 0 29.726563-5.964844 40.558594-16.800781l67.90625-67.90625zm36.589844 165.191406-56.367188-56.371093 21.519532-21.519532 56.371093 56.367188zm0 0"/>
  <path
      d="m451.625 126.488281c2.8125 2.8125 5.390625 5.792969 7.765625 8.902344l52.609375-52.609375-82.777344-82.78125-52.796875 52.792969c3.660157 2.675781 7.144531 5.640625 10.410157 8.90625zm0 0"/>
  <path d="m197.933594 212.75 18.472656-18.46875 102.636719 102.636719-18.46875 18.46875zm0 0"/>
  <path
      d="m365.316406 83.21875c-10.835937-10.832031-25.238281-16.800781-40.558594-16.800781-15.320312 0-29.726562 5.96875-40.558593 16.800781l-67.90625 67.90625 145.90625 145.90625 67.90625-67.90625c10.808593-10.8125 16.765625-25.214844 16.765625-40.558594s-5.957032-29.746094-16.765625-40.558594zm0 0"/>
</svg>
